<?xml version="1.0" standalone="no"?>
<!DOCTYPE svg PUBLIC "-//W3C//DTD SVG 20010904//EN"
 "http://www.w3.org/TR/2001/REC-SVG-20010904/DTD/svg10.dtd">
<svg version="1.0" xmlns="http://www.w3.org/2000/svg"
 width="260.000000pt" height="320.000000pt" viewBox="0 0 260.000000 320.000000"
 preserveAspectRatio="xMidYMid meet">

<g transform="translate(0.000000,320.000000) scale(0.100000,-0.100000)"
fill="#000000" stroke="none">
<path d="M343 2919 c-24 -11 -49 -32 -57 -47 -8 -15 -23 -36 -35 -46 -13 -12
-21 -31 -21 -51 0 -18 -5 -46 -11 -63 -8 -24 -7 -37 6 -61 9 -17 13 -41 9 -54
-6 -26 19 -97 35 -97 19 0 91 -102 91 -129 0 -15 6 -35 14 -46 14 -21 37 -115
31 -126 -3 -3 13 -3 35 1 69 13 120 -5 120 -41 0 -16 -8 -19 -47 -20 l-48 -2
48 -6 c80 -11 86 -51 10 -70 -25 -7 -44 -14 -41 -16 2 -3 21 0 41 6 21 5 42 7
47 4 16 -10 12 -43 -6 -53 -14 -8 -13 -10 5 -15 17 -4 21 -1 21 17 0 11 9 27
21 34 17 11 19 19 14 51 -6 35 -3 40 29 64 35 27 60 37 38 15 -7 -7 -12 -17
-12 -22 0 -6 16 6 35 26 81 83 172 91 232 20 l22 -25 -33 -41 c-28 -35 -114
-160 -152 -222 -9 -15 -10 -8 -3 30 5 28 13 66 19 85 8 31 7 33 -4 18 -12 -15
-28 -80 -40 -158 -2 -15 -14 -44 -26 -65 l-21 -39 5 35 c17 111 18 125 7 110
-6 -8 -11 -26 -12 -40 -2 -24 -2 -24 -6 -2 -2 12 -9 22 -14 22 -12 0 -11 -38
2 -97 11 -45 9 -52 -20 -109 -17 -34 -31 -67 -31 -73 0 -6 -4 -11 -10 -11 -5
0 -10 12 -10 28 0 15 -7 56 -16 92 -29 118 -34 190 -17 217 8 12 11 23 5 23
-5 0 -12 -6 -15 -14 -5 -13 -145 -86 -166 -86 -6 0 -11 -6 -11 -12 0 -7 -18
-60 -40 -118 -42 -109 -88 -194 -105 -193 -18 1 -46 95 -47 159 -1 58 3 68 49
146 42 70 51 93 55 148 6 65 36 149 48 130 3 -5 11 -1 18 10 10 17 9 18 -6 13
-15 -6 -14 -3 3 18 18 22 18 22 1 9 -32 -25 -76 -130 -76 -182 0 -46 -26 -118
-42 -118 -4 0 -8 -5 -8 -12 0 -7 -12 -29 -26 -50 -23 -32 -27 -49 -27 -106 0
-80 32 -173 74 -214 33 -34 50 -35 75 -5 19 22 19 22 -2 5 -27 -24 -36 -23
-64 7 l-24 25 22 16 c13 9 33 38 45 66 l22 51 8 -49 c5 -27 8 -60 8 -74 0 -23
1 -23 9 -5 5 11 9 70 9 130 1 75 4 105 11 95 5 -8 10 -29 10 -47 0 -17 4 -34
8 -37 5 -3 5 23 0 57 -10 75 -3 114 24 128 28 15 34 3 42 -81 3 -37 17 -110
30 -162 14 -51 30 -119 36 -152 l12 -58 -48 -49 c-65 -66 -129 -93 -224 -93
-60 0 -82 5 -112 23 -72 44 -126 183 -113 290 7 55 40 149 50 139 3 -2 0 -55
-7 -116 -8 -81 -8 -118 0 -135 10 -20 11 -19 12 13 l1 35 29 -57 c51 -97 118
-124 181 -71 l32 27 -17 -32 c-9 -18 -23 -32 -31 -32 -8 0 -15 -7 -15 -15 0
-45 61 32 86 108 l14 42 -3 -42 c-1 -24 0 -43 4 -43 13 0 18 45 12 98 -4 36
-2 52 6 52 6 0 11 -17 11 -42 0 -30 3 -39 11 -31 12 12 2 80 -12 89 -5 3 -9
17 -10 32 0 15 -7 -1 -14 -36 -33 -151 -126 -229 -198 -164 -10 8 -32 44 -49
79 -28 57 -31 72 -30 153 0 49 3 99 7 112 6 23 6 23 -15 -2 -48 -56 -65 -110
-64 -205 0 -167 71 -269 200 -288 46 -7 134 12 192 42 l37 19 32 -51 c33 -52
33 -52 12 -67 -72 -52 -82 -65 -69 -89 11 -21 8 -26 -24 -53 -84 -69 -132
-182 -124 -292 4 -48 13 -75 44 -127 50 -84 140 -166 191 -175 33 -5 114 -58
102 -67 -2 -2 -35 -16 -74 -32 -97 -40 -204 -106 -223 -138 -15 -24 -15 -28
-2 -41 8 -7 40 -16 70 -19 36 -4 46 -3 30 3 -14 4 -37 8 -52 9 -15 1 -29 4
-31 8 -3 5 28 7 68 5 44 -2 117 5 186 17 62 12 127 21 144 20 l30 -1 -30 -9
c-16 -4 -64 -15 -105 -24 -41 -8 -55 -13 -30 -10 181 20 170 20 170 -7 0 -27
20 -41 45 -32 9 4 15 19 15 39 0 30 3 33 44 44 76 19 83 53 25 137 -37 54 -37
82 3 153 l32 59 -35 71 c-20 40 -33 73 -30 75 3 2 29 7 57 11 49 6 56 4 150
-48 54 -30 139 -67 187 -82 80 -25 92 -27 130 -15 56 17 128 53 208 106 l66
44 64 -22 c35 -11 65 -22 67 -24 2 -1 -4 -16 -12 -33 -22 -41 -20 -59 9 -97
34 -44 31 -69 -10 -116 -53 -58 -62 -83 -40 -108 22 -25 100 -55 116 -45 7 5
10 4 5 -3 -14 -23 176 -61 334 -66 69 -2 100 -2 70 0 -154 10 -390 47 -378 60
2 2 56 -5 119 -16 63 -11 165 -20 227 -21 75 0 110 -4 106 -11 -4 -6 -1 -9 7
-6 16 6 13 34 -7 65 -15 23 -98 66 -211 108 -65 24 -71 28 -64 48 6 16 23 25
66 36 54 13 59 17 77 58 12 27 33 52 56 67 20 13 59 44 86 69 l49 46 -5 65
c-8 93 -55 184 -136 264 -63 62 -63 64 -45 84 18 20 17 21 -24 57 l-41 37 15
50 c8 27 23 69 33 94 9 25 20 57 24 71 4 17 15 29 30 33 13 3 46 26 74 51 95
85 152 277 124 415 -8 37 -9 25 -10 -76 0 -102 -3 -127 -21 -162 -28 -55 -65
-82 -113 -82 -33 0 -45 7 -83 45 -65 68 -89 136 -89 260 0 102 26 204 49 194
13 -5 11 -42 -11 -177 -9 -60 10 -53 24 9 13 54 14 145 3 194 -7 29 -7 29 -15
8 -4 -13 -11 -23 -16 -23 -5 0 -28 28 -52 63 -35 52 -38 59 -18 46 14 -9 37
-19 52 -22 14 -4 29 -15 31 -25 3 -10 5 -6 6 11 1 22 -3 27 -21 27 -35 0 -87
36 -94 66 -10 38 7 58 52 65 l39 6 -34 2 c-19 0 -46 11 -63 27 -17 14 -54 36
-82 50 -55 26 -47 19 46 -39 57 -36 59 -39 44 -56 -9 -10 -16 -28 -16 -42 -1
-22 -3 -21 -33 16 -43 53 -86 93 -120 111 -15 8 -51 33 -80 55 -30 22 -80 48
-117 59 l-65 20 -18 61 c-36 124 -144 199 -292 205 l-80 3 78 -9 c99 -10 192
-54 238 -111 44 -55 69 -151 69 -261 l0 -88 -40 21 c-77 40 -188 22 -226 -36
-23 -35 -58 -32 -99 10 -19 19 -53 39 -75 45 -51 14 -122 4 -154 -21 -13 -11
-27 -19 -30 -19 -10 0 -7 133 5 195 18 99 74 186 142 222 16 8 27 17 24 20 -3
3 -27 -10 -52 -27 -48 -33 -101 -105 -112 -150 -3 -14 -12 -30 -20 -37 -8 -6
-10 -13 -6 -16 5 -3 6 -43 2 -89 -4 -45 -5 -87 -1 -93 3 -5 -4 -2 -15 8 -23
20 -44 22 -60 6 -13 -13 -47 -4 -38 10 3 5 0 13 -6 17 -7 4 -9 3 -5 -4 3 -6 2
-13 -3 -17 -6 -3 -8 -12 -4 -20 3 -9 -1 -15 -8 -15 -15 0 -39 44 -39 70 0 22
44 61 110 99 30 17 51 31 47 31 -17 0 -90 -43 -125 -74 -20 -18 -59 -45 -87
-61 -27 -15 -97 -75 -154 -132 -68 -69 -107 -101 -113 -95 -6 6 -14 54 -18
109 -7 88 -6 101 11 125 10 15 19 43 19 63 0 20 7 47 16 60 11 17 14 35 10 60
-4 19 -2 44 4 55 17 32 -9 97 -53 132 -21 17 -47 48 -58 69 -10 22 -23 39 -28
39 -5 0 -15 2 -23 4 -7 2 -32 -4 -55 -15z m96 -38 c11 -21 39 -55 63 -74 l42
-35 2 -84 c1 -59 -3 -90 -14 -107 -12 -21 -18 -44 -21 -95 -1 -5 -7 -3 -15 3
-18 15 -26 71 -14 94 5 10 7 21 4 24 -3 3 -11 -7 -18 -23 -14 -31 -26 -44 -45
-44 -7 0 -4 15 9 41 23 48 18 58 -15 36 -27 -18 -67 -12 -67 9 0 8 -4 14 -9
14 -5 0 -11 22 -15 50 -4 27 -11 52 -15 55 -14 8 -1 44 22 60 28 20 30 19 66
-11 23 -19 31 -34 31 -57 0 -34 15 -66 25 -55 4 3 2 16 -5 27 -6 12 -8 26 -5
31 8 13 -30 76 -51 84 -30 11 -61 6 -88 -15 -20 -16 -30 -19 -39 -10 -14 14 3
34 32 36 11 1 25 6 33 12 7 6 27 13 43 15 26 4 27 5 11 13 -13 6 -29 3 -48 -8
-27 -15 -28 -15 -28 3 0 22 43 47 82 49 22 1 31 -6 47 -38z m1343 -362 c20
-10 52 -31 70 -47 18 -15 50 -36 71 -47 45 -22 120 -102 148 -157 15 -30 17
-43 9 -58 -15 -28 -32 -16 -20 15 9 23 5 30 -29 50 -10 6 -12 4 -6 -5 6 -10 4
-12 -9 -7 -9 4 -15 3 -12 -2 3 -5 -1 -14 -9 -21 -12 -10 -21 -7 -50 19 -20 17
-43 31 -53 31 -9 0 -24 5 -32 11 -12 8 -10 9 9 4 18 -6 22 -4 16 6 -5 8 1 5
13 -5 22 -19 22 -19 19 5 -3 15 -11 24 -21 24 -22 0 -41 31 -23 38 16 6 15 59
-1 65 -7 2 -9 -5 -7 -19 3 -13 -3 -34 -12 -48 -13 -21 -17 -22 -27 -9 -6 8
-21 14 -34 13 -13 -1 -27 6 -33 17 -12 23 -55 23 -68 1 -8 -14 -10 -2 -11 47
0 36 -3 76 -7 89 -6 23 -5 24 33 17 21 -4 55 -16 76 -27z m-954 -93 c3 -15 0
-16 -16 -7 -14 7 -24 7 -38 -4 -17 -12 -18 -14 -2 -20 9 -4 14 -13 11 -21 -3
-8 -8 -12 -13 -9 -4 2 -16 -2 -26 -10 -19 -14 -19 -15 1 -12 11 1 26 6 33 11
7 4 21 5 30 2 15 -5 15 -5 2 6 -19 16 -20 43 -2 42 33 -3 35 -5 17 -17 -20
-15 -5 -33 18 -22 6 4 5 0 -3 -7 -21 -19 -80 -95 -80 -104 0 -4 11 3 24 15 15
14 26 19 31 12 9 -16 22 -13 22 4 0 9 -6 14 -14 11 -23 -9 -14 10 16 32 l29
21 23 -25 c12 -13 21 -25 18 -27 -29 -24 -59 -37 -82 -37 -15 0 -41 -7 -56
-15 -16 -8 -32 -11 -36 -7 -5 4 -5 2 -2 -4 16 -27 -55 -50 -76 -25 -14 16 -29
48 -32 66 -2 21 32 61 103 117 75 59 94 66 100 34z m171 -43 c25 -31 19 -44
-9 -18 -11 10 -23 15 -27 12 -4 -4 2 -13 12 -21 17 -12 18 -17 6 -39 -7 -14
-11 -31 -8 -39 3 -7 6 -2 6 10 1 14 6 22 14 19 6 -2 11 -15 9 -28 -6 -50 -4
-70 14 -96 12 -19 19 -23 22 -14 3 8 -3 20 -12 26 -9 7 -16 24 -16 39 0 50 32
6 44 -60 3 -15 12 -34 21 -44 20 -22 4 -36 -23 -21 -29 16 -93 90 -108 127
-26 62 -13 174 20 174 8 0 24 -12 35 -27z m756 -17 c11 -26 12 -47 4 -96 -12
-73 -23 -92 -84 -144 -36 -29 -49 -36 -58 -27 -9 9 -8 15 6 22 9 6 17 17 17
24 0 8 7 15 15 15 20 0 48 45 42 67 -4 14 -5 13 -6 -4 -1 -15 -7 -23 -18 -23
-14 0 -15 -2 -4 -9 8 -5 9 -11 3 -15 -5 -3 -12 0 -15 8 -7 18 28 88 38 78 4
-4 5 0 3 8 -3 8 -1 23 4 34 8 15 12 16 19 5 6 -9 9 -10 9 -2 0 7 -7 16 -16 21
-20 11 -9 36 12 28 8 -3 14 -1 14 4 0 13 -27 13 -35 0 -3 -5 -11 -10 -17 -10
-6 0 -1 11 12 25 31 33 38 32 55 -9z m-1285 -56 c-8 -5 -11 -24 -8 -49 2 -22
0 -41 -3 -41 -9 0 -29 91 -29 128 l1 27 17 -30 17 -30 5 40 4 40 4 -39 c2 -23
-1 -42 -8 -46z m443 42 c-3 -12 -9 -19 -14 -16 -5 3 -3 14 3 24 15 24 19 21
11 -8z m889 -37 c0 -5 -5 -11 -11 -13 -6 -2 -11 4 -11 13 0 9 5 15 11 13 6 -2
11 -8 11 -13z m111 -51 c43 -23 147 -123 147 -143 0 -14 2 -14 10 -1 7 12 15
9 47 -17 23 -19 37 -38 35 -49 -1 -11 -5 -53 -9 -94 -4 -44 -16 -97 -30 -128
-24 -55 -28 -72 -15 -72 4 0 14 24 22 53 l16 52 -1 -82 c0 -68 3 -85 19 -100
18 -17 19 -17 11 2 -5 11 -10 43 -12 70 l-3 50 15 -34 c8 -18 15 -39 15 -45 0
-25 88 -105 129 -117 34 -10 44 -9 66 5 32 21 31 14 -1 -42 -19 -33 -39 -50
-77 -68 -29 -13 -63 -24 -77 -24 -32 0 -122 51 -148 84 -35 45 -75 193 -75
276 0 70 0 71 -6 21 -6 -50 -7 -52 -22 -35 -9 11 -26 37 -37 59 -11 22 -28 49
-37 60 -16 19 -16 18 -1 -7 9 -15 16 -36 16 -48 0 -11 5 -20 12 -20 6 0 9 -3
5 -6 -3 -3 3 -14 14 -25 10 -10 19 -28 19 -39 0 -11 4 -20 10 -20 8 0 40 -89
40 -112 0 -5 -9 0 -21 11 -11 10 -20 27 -19 37 4 38 0 56 -12 51 -13 -4 -25
14 -67 100 -16 31 -26 41 -37 36 -15 -5 -15 -7 0 -15 9 -5 16 -14 16 -19 0 -6
11 -25 25 -43 14 -18 25 -40 25 -49 0 -9 5 -19 11 -22 6 -4 8 -13 5 -20 -2 -7
3 -23 12 -36 15 -24 15 -24 -5 -6 -20 17 -20 17 -16 -8 5 -22 19 -30 46 -26 4
0 7 0 7 -1 1 -2 27 -82 59 -178 40 -119 54 -177 47 -182 -6 -5 -2 -8 10 -8 12
0 25 -10 32 -25 7 -15 8 -25 2 -25 -6 0 -10 -4 -10 -10 0 -5 5 -10 12 -10 6 0
32 -12 57 -27 l45 -26 -34 -12 c-54 -19 -176 -82 -270 -139 -85 -53 -228 -123
-233 -115 -2 2 -14 21 -26 42 -12 20 -25 37 -28 37 -2 0 5 -16 17 -35 12 -20
20 -41 17 -48 -6 -17 -166 -72 -176 -61 -21 23 -131 195 -131 204 0 5 12 12
28 16 49 10 71 24 27 17 -22 -3 -44 -6 -50 -6 -5 1 -44 4 -85 8 -87 9 -91 -2
-4 -13 44 -5 60 -11 62 -24 4 -21 -105 -218 -124 -225 -16 -6 -216 50 -289 80
-48 20 -154 85 -204 125 -21 17 -25 31 -30 101 -4 44 -5 81 -3 81 2 0 12 -5
23 -11 11 -6 25 -8 32 -6 7 3 -4 12 -23 21 l-35 17 43 -5 c52 -5 46 12 -8 20
-35 6 -40 10 -45 38 -2 17 -9 59 -15 92 -6 34 -8 68 -6 75 3 8 7 34 10 59 4
25 11 60 17 79 10 31 13 33 24 18 17 -23 19 -22 72 18 25 19 50 35 54 35 4 0
15 -15 24 -32 8 -18 29 -49 45 -68 23 -28 31 -32 41 -23 10 10 9 17 -6 33 -12
14 -21 17 -25 9 -5 -7 -9 -5 -13 5 -4 9 -1 16 5 16 13 0 1 14 -13 16 -22 3
-23 5 -10 13 10 7 11 13 2 30 -9 17 -9 21 2 21 7 0 24 11 37 25 13 14 27 25
32 25 4 0 31 11 60 25 61 30 58 29 58 9 0 -20 60 -127 67 -120 3 3 2 13 -2 23
-5 10 -7 21 -7 26 1 4 -3 7 -8 7 -6 0 -10 6 -10 14 0 8 -4 16 -8 18 -5 2 -11
19 -15 39 -5 35 -3 37 43 62 l48 26 7 -52 c4 -29 9 -46 12 -39 7 18 23 15 23
-5 1 -10 7 -35 14 -55 10 -27 10 -38 3 -38 -7 0 2 -14 19 -31 22 -22 42 -31
70 -34 35 -2 36 -2 9 5 l-30 7 28 2 c42 2 82 29 106 72 12 21 21 41 20 46 -1
4 -1 15 0 23 1 12 4 12 15 -3 12 -15 14 -14 20 20 3 21 6 52 6 70 0 17 4 34 8
37 10 6 92 -51 92 -64 0 -5 -5 -10 -10 -12 -6 -2 -14 -26 -19 -55 -4 -28 -15
-63 -24 -77 -10 -14 -17 -32 -17 -41 0 -8 -8 -23 -19 -34 -10 -10 -21 -36 -25
-57 -5 -28 -4 -35 3 -24 6 8 11 23 11 33 0 30 19 18 23 -15 4 -31 4 -31 5 6 2
44 39 157 55 167 5 4 7 14 4 23 -4 9 -2 16 3 16 5 0 13 18 16 40 4 26 10 37
18 33 6 -4 17 -8 24 -9 7 -2 47 -19 89 -38 41 -20 79 -34 83 -31 5 3 12 -1 17
-8 4 -8 24 -22 43 -32 l34 -18 -16 24 c-8 13 -19 23 -24 22 -5 -1 -17 6 -27
14 -9 9 -20 13 -24 10 -4 -4 -17 3 -30 15 -15 14 -23 17 -23 8 0 -9 -8 -6 -24
9 -13 12 -31 23 -39 25 -9 1 -25 10 -37 21 -12 11 -20 13 -20 6 0 -8 -11 -4
-30 9 -16 12 -30 18 -30 14 0 -3 -7 -1 -15 6 -8 7 -15 9 -15 5 0 -4 -15 4 -32
17 -47 35 -63 43 -54 30 4 -7 5 -12 1 -12 -8 0 -47 23 -67 39 -16 12 -18 12
-18 0 0 -8 -14 1 -31 20 l-31 33 -30 -36 c-16 -20 -34 -36 -39 -36 -5 0 -33
-17 -62 -38 -29 -22 -58 -37 -64 -35 -7 3 -13 0 -13 -6 0 -10 -40 -32 -62 -35
-3 -1 -10 -5 -15 -10 -5 -5 -3 -6 5 -2 6 4 12 2 12 -5 0 -7 -10 -9 -24 -7 -16
3 -27 0 -30 -9 -3 -8 -10 -12 -14 -9 -5 3 -27 -10 -49 -29 -22 -19 -43 -32
-45 -29 -3 2 -11 -2 -18 -11 -7 -8 -20 -15 -29 -15 -9 0 -34 -14 -55 -30 -41
-31 -66 -38 -66 -19 0 5 6 7 13 4 6 -4 4 0 -7 9 -11 9 -15 19 -10 28 8 12 10
18 17 53 2 8 6 18 10 21 10 11 8 34 -3 34 -5 0 -12 -11 -16 -25 -3 -14 -11
-22 -16 -19 -6 4 -8 -1 -4 -13 4 -12 -6 -44 -25 -83 -18 -35 -36 -77 -40 -94
-6 -23 -7 -16 -4 25 2 31 8 65 13 75 6 11 34 67 63 126 54 111 81 149 94 128
4 -6 -2 -20 -13 -30 -20 -19 -38 -58 -30 -66 3 -2 13 5 23 16 10 11 13 20 7
20 -6 0 4 15 22 34 l34 34 -23 12 c-20 10 -22 16 -12 31 8 13 14 15 24 7 10
-8 11 -14 2 -25 -8 -9 -2 -8 19 4 18 10 32 23 32 30 0 6 8 14 18 17 9 3 30 17
46 31 16 14 35 25 42 25 7 0 28 9 46 19 26 15 49 19 107 17 50 -1 75 2 78 10
2 7 11 15 19 18 12 4 14 1 9 -14 -5 -15 -2 -20 13 -20 11 0 25 -7 32 -15 7 -8
19 -15 27 -15 7 0 16 7 19 15 4 8 14 15 23 15 24 0 30 8 24 31 -3 10 -13 19
-22 18 -10 0 -11 -2 -3 -6 15 -6 16 -33 0 -33 -6 0 -19 -7 -28 -15 -15 -14
-18 -14 -30 0 -7 8 -19 15 -26 15 -17 0 -18 12 -2 28 22 22 -1 24 -37 3 -39
-23 -95 -28 -95 -9 0 9 -3 9 -12 0 -18 -18 -58 -15 -58 4 0 14 3 14 15 4 10
-8 15 -9 15 -1 0 6 -13 17 -30 26 -43 22 -37 37 7 18 24 -10 56 -14 90 -11 63
5 98 33 115 90 16 53 43 51 67 -5 11 -24 31 -53 46 -65 38 -30 107 -38 157
-18 23 9 44 13 47 11 2 -3 -11 -19 -30 -36 -19 -17 -26 -26 -16 -19 15 11 17
9 17 -14 0 -20 5 -26 23 -26 12 0 33 -3 47 -5 l25 -6 -25 13 c-14 6 -27 13
-29 15 -6 4 43 42 54 42 6 0 28 -25 51 -57 52 -73 60 -87 46 -78 -22 14 -12
-6 20 -37 30 -30 68 -44 68 -26 0 5 -6 9 -14 9 -15 0 -33 18 -38 40 -2 8 -15
28 -30 45 -16 16 -28 34 -28 39 0 5 -8 14 -17 21 -15 11 -16 15 -3 31 13 17
13 18 0 7 -12 -9 -17 -7 -27 13 -13 28 0 42 24 23 8 -8 37 -46 64 -86 28 -40
52 -73 54 -73 8 0 -45 81 -86 131 l-38 46 15 44 c8 24 22 50 31 57 23 17 88
15 126 -4z m-1426 -16 c-3 -8 -6 -5 -6 6 -1 11 2 17 5 13 3 -3 4 -12 1 -19z
m123 13 c0 -5 -7 -12 -16 -15 -14 -5 -15 -4 -4 9 14 17 20 19 20 6z m1439 -46
c-2 -20 13 -55 22 -49 5 3 23 -5 40 -17 l31 -22 -11 21 c-6 12 -15 21 -19 21
-20 -3 -23 3 -11 18 9 11 10 14 2 9 -9 -5 -11 -2 -7 8 3 9 8 16 9 16 8 0 65
-102 65 -115 0 -20 -4 -19 -53 12 -70 44 -128 105 -116 119 8 10 15 11 30 1
10 -6 18 -16 18 -22z m-1449 5 c0 -5 -4 -10 -10 -10 -5 0 -10 5 -10 10 0 6 5
10 10 10 6 0 10 -4 10 -10z m54 -45 c-3 -7 -12 -16 -19 -19 -11 -4 -14 4 -13
30 1 32 2 33 19 18 10 -9 15 -22 13 -29z m-66 13 c18 -24 34 -119 21 -134 -15
-18 -31 -7 -24 16 3 11 2 27 -3 37 -13 26 -22 93 -13 93 5 0 13 -6 19 -12z
m408 -50 c5 -7 3 -8 -5 -4 -8 6 -11 2 -9 -10 2 -13 -3 -19 -15 -17 -12 1 -17
-4 -13 -14 7 -16 -18 -46 -28 -35 -4 3 -4 -1 -1 -9 7 -19 -20 -45 -30 -30 -12
21 49 106 68 94 6 -3 7 -1 3 5 -8 13 0 32 14 32 5 0 12 -5 16 -12z m79 -48
c11 0 -8 -13 -42 -28 -34 -16 -71 -37 -83 -47 -31 -28 -24 -9 20 51 39 52 42
54 63 39 12 -8 31 -15 42 -15z m-183 -82 c3 -7 -1 -23 -7 -36 -11 -21 -13 -22
-19 -5 -8 19 -5 29 6 26 4 -2 5 4 2 12 -4 8 -2 15 4 15 5 0 12 -6 14 -12z
m529 -98 c26 -14 24 -32 -3 -28 -13 2 -24 11 -26 21 -4 20 2 21 29 7z m-840
-153 c12 -48 19 -91 15 -94 -3 -4 -6 3 -6 15 0 11 -5 24 -12 28 -8 5 -9 -4 -5
-31 3 -21 11 -41 17 -45 17 -10 28 -62 59 -270 38 -256 45 -324 32 -315 -7 4
-11 -3 -11 -16 0 -34 31 -139 41 -139 16 0 39 -71 49 -153 6 -45 17 -111 26
-147 8 -36 19 -83 24 -105 5 -22 9 -60 8 -85 -1 -37 -2 -39 -5 -10 -6 65 -26
150 -34 150 -12 0 -11 -13 6 -95 17 -79 20 -119 6 -95 -4 8 -16 69 -25 135
-10 66 -26 159 -36 207 -12 59 -14 88 -7 91 6 2 8 11 4 21 -4 9 -11 15 -16 12
-5 -3 -13 0 -19 7 -15 18 -42 129 -42 174 0 22 -4 53 -9 69 -6 16 -12 81 -15
144 -2 63 -9 128 -15 143 -6 16 -10 40 -10 55 1 17 3 21 6 10 10 -41 21 -14
16 40 -8 81 -22 100 -24 32 l-1 -55 -14 65 c-8 36 -17 92 -20 125 -3 33 -10
64 -15 70 -5 5 -9 17 -9 27 0 10 -4 18 -10 18 -6 0 -9 28 -9 68 1 37 4 54 6
37 8 -57 23 -51 25 11 1 35 3 45 5 24 2 -19 13 -75 24 -123z m757 -9 c2 -16 7
-28 12 -28 5 0 10 12 12 28 2 22 9 28 34 30 19 2 36 -3 43 -12 19 -22 5 -83
-24 -110 -31 -29 -93 -33 -101 -8 -11 34 -21 47 -40 47 -23 0 -30 35 -14 65 9
16 19 20 43 18 27 -2 33 -8 35 -30z m627 -8 c3 -5 1 -10 -4 -10 -6 0 -11 5
-11 10 0 6 2 10 4 10 3 0 8 -4 11 -10z m-665 -90 c0 -32 -11 -38 -29 -16 -14
16 -4 46 15 46 9 0 14 -11 14 -30z m739 -90 c0 -13 -1 -13 -8 0 -5 8 -12 26
-15 40 l-7 25 15 -25 c9 -14 15 -32 15 -40z m-1099 -10 c0 -5 -2 -10 -4 -10
-3 0 -8 5 -11 10 -3 6 -1 10 4 10 6 0 11 -4 11 -10z m1265 -85 c26 -6 27 -8
12 -16 -9 -6 -22 -7 -27 -4 -6 4 -10 -6 -11 -22 l-1 -28 -10 29 -11 29 -13
-24 c-7 -13 -13 -18 -14 -11 0 18 -30 15 -30 -4 0 -14 -2 -14 -16 -3 -10 8
-12 15 -5 17 7 2 6 9 -4 19 -16 15 -19 41 -9 67 5 13 14 11 57 -13 29 -16 65
-32 82 -36z m10 -62 c-3 -16 -10 -32 -15 -37 -5 -5 -4 7 2 27 13 43 23 50 13
10z m-73 -76 c-4 -42 14 -51 24 -12 3 14 10 25 15 25 4 0 2 -21 -6 -46 -15
-50 -25 -67 -25 -42 0 9 -7 22 -16 29 -15 13 -23 28 -38 76 -6 20 -4 21 21 14
25 -7 28 -11 25 -44z m-1562 -101 c0 -3 -4 -8 -10 -11 -5 -3 -10 -1 -10 4 0 6
5 11 10 11 6 0 10 -2 10 -4z m4 -57 c3 -17 6 -42 6 -56 0 -22 -2 -23 -22 -12
-13 7 -41 18 -63 24 l-40 12 50 31 c28 18 53 32 56 32 4 0 9 -14 13 -31z
m1636 -33 c0 -11 -19 -15 -25 -6 -3 5 1 10 9 10 9 0 16 -2 16 -4z m-1732 -25
c11 -7 11 -9 -1 -14 -16 -6 -27 0 -27 15 0 10 11 10 28 -1z m1002 -335 c0 -2
-7 -6 -15 -10 -8 -3 -15 -1 -15 4 0 6 7 10 15 10 8 0 15 -2 15 -4z m-182 -36
c23 -12 42 -27 42 -32 0 -7 -5 -6 -13 1 -8 6 -17 8 -20 4 -4 -3 -7 -1 -7 5 0
7 -7 12 -15 12 -8 0 -15 4 -15 9 0 5 -11 11 -25 13 -18 4 -25 1 -26 -11 -1
-13 -2 -13 -6 2 -3 12 -15 17 -43 17 -32 0 -42 -5 -60 -32 -12 -18 -19 -24
-15 -13 3 11 7 25 8 30 4 21 24 26 87 21 39 -2 82 -13 108 -26z m252 26 c0 -2
-7 -7 -16 -10 -8 -3 -12 -2 -9 4 6 10 25 14 25 6z m-493 -46 c14 -11 22 -20
17 -20 -12 1 -61 39 -51 40 5 0 20 -9 34 -20z m343 3 c-14 -9 -27 -18 -30 -20
-2 -2 2 -8 10 -14 13 -8 13 -10 0 -19 -12 -7 -16 -4 -18 16 -4 27 20 53 48 54
8 0 4 -7 -10 -17z m-235 -58 c22 -14 36 -25 32 -25 -11 0 -87 39 -87 45 0 10
16 4 55 -20z m70 7 c-3 -3 -11 0 -18 7 -9 10 -8 11 6 5 10 -3 15 -9 12 -12z
m345 13 c0 -6 -56 -35 -67 -35 -4 1 8 9 27 20 39 22 40 22 40 15z m-80 -41 c0
-3 -10 -8 -22 -13 -24 -9 -42 -5 -34 7 4 8 56 13 56 6z m-228 -17 c59 -21 57
-29 -3 -11 -30 9 -56 18 -58 20 -9 8 26 3 61 -9z m138 -27 c-8 -5 -22 -9 -30
-9 -10 0 -8 3 5 9 27 12 43 12 25 0z m512 -165 c35 -8 81 -16 102 -19 47 -6
196 -58 196 -68 0 -4 -11 -15 -25 -24 -36 -24 -139 -13 -280 29 -113 33 -133
49 -105 82 16 19 33 19 112 0z m-1022 -91 c0 -15 -30 -34 -54 -34 -26 0 -20
49 7 59 24 9 47 -3 47 -25z m-212 14 c49 -12 62 -22 62 -49 0 -19 -116 -58
-197 -66 -50 -5 -57 -4 -79 20 -13 14 -24 28 -24 30 0 3 80 40 140 65 33 14
43 14 98 0z m1137 -56 c-5 -5 -63 27 -71 39 -3 6 12 0 34 -12 22 -13 39 -25
37 -27z m-1011 -8 c3 -9 6 -37 5 -62 l-1 -47 -9 44 c-4 23 -11 52 -14 62 -8
23 10 26 19 3z m101 -53 c-40 -16 -75 -21 -75 -12 0 9 31 17 75 19 l20 1 -20
-8z m-88 -83 c-3 -8 -6 -5 -6 6 -1 11 2 17 5 13 3 -3 4 -12 1 -19z"/>
<path d="M460 2791 c0 -5 4 -12 8 -15 5 -3 7 -18 4 -34 -2 -18 3 -40 13 -55
10 -16 14 -34 10 -47 -3 -11 -2 -20 4 -20 17 0 22 36 10 66 -7 16 -15 47 -18
68 -3 22 -12 41 -18 44 -7 2 -13 -1 -13 -7z"/>
<path d="M393 2696 c4 -10 7 -22 7 -27 0 -5 5 -9 11 -9 15 0 7 43 -10 48 -10
3 -12 0 -8 -12z"/>
<path d="M450 2659 c0 -5 5 -7 10 -4 6 3 10 8 10 11 0 2 -4 4 -10 4 -5 0 -10
-5 -10 -11z"/>
<path d="M1798 2456 c3 -5 -2 -7 -11 -3 -13 5 -16 1 -13 -16 4 -29 48 -46 71
-27 10 8 12 17 6 23 -5 5 -7 15 -5 21 2 7 -7 11 -25 11 -16 0 -27 -4 -23 -9z
m52 -32 c0 -2 -7 -4 -15 -4 -8 0 -15 4 -15 10 0 5 7 7 15 4 8 -4 15 -8 15 -10z"/>
<path d="M1898 2409 c-3 -8 2 -20 11 -27 15 -11 14 -12 0 -6 -32 11 -27 -12 8
-35 19 -12 31 -17 27 -9 -9 13 -11 19 -13 41 0 7 -7 22 -15 32 -10 15 -14 15
-18 4z"/>
<path d="M735 2380 c-21 -23 -8 -27 20 -7 11 8 14 16 8 20 -6 4 -18 -2 -28
-13z"/>
<path d="M653 2308 c-20 -21 -20 -26 -8 -55 16 -38 18 -39 36 -15 13 15 12 16
-3 3 -17 -13 -26 -2 -11 13 6 6 13 76 8 76 -1 0 -11 -10 -22 -22z m17 -2 c0
-2 -8 -10 -17 -17 -16 -13 -17 -12 -4 4 13 16 21 21 21 13z"/>
<path d="M1323 2190 c0 -30 2 -43 4 -27 2 15 2 39 0 55 -2 15 -4 2 -4 -28z"/>
<path d="M1865 2089 c36 -44 71 -114 88 -183 9 -32 18 -61 21 -64 9 -8 -3 55
-20 109 -17 52 -89 169 -105 169 -6 0 1 -14 16 -31z"/>
<path d="M1435 2094 c9 -9 19 -13 23 -10 3 4 0 11 -8 16 -24 15 -33 11 -15 -6z"/>
<path d="M1495 2090 c-29 -6 -28 -6 14 -13 48 -8 63 -4 34 10 -10 5 -31 7 -48
3z"/>
<path d="M2090 2050 c6 -11 13 -20 16 -20 2 0 0 9 -6 20 -6 11 -13 20 -16 20
-2 0 0 -9 6 -20z"/>
<path d="M1715 2030 c3 -5 11 -10 16 -10 6 0 7 5 4 10 -3 6 -11 10 -16 10 -6
0 -7 -4 -4 -10z"/>
<path d="M1750 2005 c0 -8 7 -15 16 -15 14 0 14 3 4 15 -7 8 -14 15 -16 15 -2
0 -4 -7 -4 -15z"/>
<path d="M1476 1705 c-9 -26 -7 -32 5 -12 6 10 9 21 6 23 -2 3 -7 -2 -11 -11z"/>
<path d="M686 1653 c-6 -14 -5 -15 5 -6 7 7 10 15 7 18 -3 3 -9 -2 -12 -12z"/>
<path d="M1857 1621 c-33 -45 -134 -139 -197 -184 l-25 -17 31 14 c17 8 57 36
90 63 l59 47 -37 -42 c-40 -44 -50 -64 -21 -41 19 16 114 143 132 177 22 42 6
33 -32 -17z"/>
<path d="M1160 1625 c-6 -25 -8 -120 -2 -130 4 -5 10 6 13 25 l6 35 8 -32 c4
-18 11 -30 16 -27 12 7 11 44 -1 44 -5 0 -10 9 -10 20 0 11 -4 20 -9 20 -5 0
-12 12 -14 28 -2 15 -5 23 -7 17z"/>
<path d="M1406 1615 c-11 -8 -15 -15 -9 -15 6 0 16 7 23 15 16 19 11 19 -14 0z"/>
<path d="M1216 1463 c8 -31 45 -86 52 -78 3 3 0 15 -6 28 -6 12 -16 34 -22 50
-5 15 -14 27 -20 27 -6 0 -8 -11 -4 -27z"/>
<path d="M1474 1466 c-3 -14 -12 -27 -19 -30 -7 -2 -16 -20 -20 -38 -4 -18
-16 -45 -26 -60 -11 -14 -19 -31 -19 -37 0 -6 -7 -11 -15 -11 -9 0 -15 -9 -15
-22 0 -18 -5 -13 -22 19 -12 23 -25 40 -29 38 -4 -3 -10 6 -13 20 -7 26 -21
31 -46 15 -12 -8 -11 -10 7 -10 14 0 24 -9 32 -30 5 -16 14 -30 19 -30 7 0 32
-42 32 -54 0 -2 -24 -2 -52 0 l-53 3 53 -13 c30 -8 56 -17 59 -20 4 -3 11 -2
17 2 6 5 33 17 59 26 56 21 58 30 3 15 -21 -6 -40 -8 -43 -5 -10 10 29 80 61
110 17 16 25 26 19 22 -17 -10 -16 9 0 26 8 7 17 30 21 51 8 41 0 51 -10 13z"/>
<path d="M1533 1360 c0 -25 2 -35 4 -22 2 12 2 32 0 45 -2 12 -4 2 -4 -23z"/>
<path d="M960 1360 c0 -5 5 -10 11 -10 5 0 7 5 4 10 -3 6 -8 10 -11 10 -2 0
-4 -4 -4 -10z"/>
<path d="M1965 1290 c-8 -13 5 -13 25 0 13 8 13 10 -2 10 -9 0 -20 -4 -23 -10z"/>
<path d="M1535 1270 c5 -8 12 -35 16 -60 l6 -45 2 46 c1 33 -4 51 -16 60 -15
12 -16 12 -8 -1z"/>
<path d="M1100 1266 c0 -2 7 -7 16 -10 8 -3 12 -2 9 4 -6 10 -25 14 -25 6z"/>
<path d="M1167 1257 c-11 -29 -9 -43 4 -30 6 6 9 19 7 29 -3 18 -4 18 -11 1z"/>
<path d="M1940 1220 c-8 -5 -23 -10 -33 -10 -23 0 -119 -41 -112 -48 2 -3 -3
-12 -13 -20 -15 -12 -14 -12 8 0 51 30 75 42 90 44 18 3 103 34 109 40 9 8
-35 3 -49 -6z"/>
<path d="M1125 1188 c9 -16 21 -28 26 -28 14 0 11 -82 -4 -110 -7 -14 -26 -46
-41 -72 -15 -27 -26 -48 -23 -48 14 0 85 141 90 181 7 52 -1 98 -14 78 -6 -10
-13 -9 -30 6 l-22 20 18 -27z"/>
<path d="M770 1170 c0 -5 5 -10 10 -10 6 0 10 5 10 10 0 6 -4 10 -10 10 -5 0
-10 -4 -10 -10z"/>
<path d="M1587 1139 c-9 -5 -22 -7 -27 -4 -6 3 -10 -3 -10 -14 0 -26 5 -26 32
-1 12 10 26 17 31 13 6 -3 7 -1 3 5 -8 14 -6 14 -29 1z"/>
<path d="M1560 1083 c0 -4 16 -26 36 -48 37 -40 29 -24 -13 28 -13 16 -23 25
-23 20z"/>
<path d="M2006 2232 c-3 -5 3 -17 13 -27 17 -15 19 -15 17 -1 -3 22 -22 40
-30 28z"/>
<path d="M649 1175 c-3 -24 4 -71 12 -85 6 -10 8 -3 9 25 0 35 -18 86 -21 60z"/>
<path d="M2131 1444 c0 -11 3 -14 6 -6 3 7 2 16 -1 19 -3 4 -6 -2 -5 -13z"/>
<path d="M1230 2820 c-18 -12 -2 -12 25 0 13 6 15 9 5 9 -8 0 -22 -4 -30 -9z"/>
<path d="M1159 2709 l-24 -21 25 16 c34 22 62 20 96 -6 l29 -22 -24 27 c-30
33 -70 35 -102 6z"/>
<path d="M1420 2695 c-14 -8 -20 -14 -15 -14 6 0 21 6 35 14 14 8 21 14 15 14
-5 0 -21 -6 -35 -14z"/>
<path d="M1483 2682 c-12 -2 -27 -11 -35 -20 -12 -15 -11 -16 4 -4 19 15 69
19 88 7 8 -5 11 -4 7 2 -8 13 -35 20 -64 15z"/>
<path d="M1360 2670 c-23 -7 -23 -8 -3 -9 12 -1 25 4 28 9 3 6 5 10 3 9 -2 -1
-14 -5 -28 -9z"/>
<path d="M1123 2638 c-23 -26 -36 -69 -27 -92 10 -26 25 -18 18 10 -7 27 10
70 36 91 8 7 10 13 4 13 -6 0 -20 -10 -31 -22z"/>
<path d="M1255 2626 c10 -14 19 -26 22 -26 7 0 -17 39 -28 46 -6 3 -3 -5 6
-20z"/>
<path d="M1467 2623 c-3 -5 11 -8 29 -9 38 -1 68 -24 79 -61 7 -25 -9 -32 -22
-9 -10 17 -73 32 -73 17 0 -6 9 -11 19 -11 11 0 33 -11 49 -25 17 -14 33 -25
36 -25 10 0 7 48 -6 75 -18 39 -96 73 -111 48z"/>
<path d="M2111 2596 c-9 -11 -4 -32 24 -97 20 -46 33 -72 30 -56 -3 15 -17 52
-31 83 -14 30 -22 59 -19 64 11 18 33 11 54 -16 12 -15 21 -22 21 -15 0 16
-37 51 -54 51 -7 0 -19 -6 -25 -14z"/>
<path d="M1142 2584 c-12 -8 -22 -20 -22 -26 0 -6 9 -3 19 6 10 9 32 21 47 26
28 8 29 8 4 9 -14 1 -36 -6 -48 -15z"/>
<path d="M1435 2534 c-24 -37 -13 -40 14 -4 12 17 17 30 12 30 -5 0 -16 -12
-26 -26z"/>
<path d="M925 2511 c3 -2 -1 -11 -8 -19 -9 -11 -4 -11 16 2 32 22 32 22 7 22
-10 0 -17 -2 -15 -5z"/>
<path d="M1969 2503 c-12 -16 -12 -17 1 -7 8 7 24 14 35 17 19 4 19 5 -1 6
-12 0 -28 -7 -35 -16z"/>
<path d="M2060 2496 c0 -3 15 -15 33 -27 23 -17 28 -18 18 -6 -14 18 -51 42
-51 33z"/>
<path d="M1296 2460 c3 -14 10 -32 15 -40 7 -13 8 -13 8 0 0 8 -6 26 -15 40
l-15 25 7 -25z"/>
<path d="M2256 2470 c12 -5 29 -19 38 -32 12 -17 16 -18 16 -6 0 17 -41 48
-62 47 -7 0 -3 -4 8 -9z"/>
<path d="M2210 2460 c0 -5 5 -10 10 -10 6 0 10 5 10 10 0 6 -4 10 -10 10 -5 0
-10 -4 -10 -10z"/>
<path d="M2340 2430 c6 -11 13 -20 16 -20 2 0 0 9 -6 20 -6 11 -13 20 -16 20
-2 0 0 -9 6 -20z"/>
<path d="M2230 2389 c0 -16 -4 -19 -22 -14 -20 5 -21 4 -5 -5 26 -17 21 -49
-9 -61 -15 -5 -24 -12 -21 -15 3 -3 14 -1 24 5 11 5 41 8 69 6 62 -5 94 3 94
23 0 13 -2 13 -18 -1 -27 -25 -45 -22 -38 6 16 61 16 69 -2 31 -34 -70 -78
-67 -66 4 4 23 4 42 0 42 -3 0 -6 -9 -6 -21z"/>
<path d="M2362 2375 c0 -16 2 -22 5 -12 2 9 2 23 0 30 -3 6 -5 -1 -5 -18z"/>
<path d="M2185 2330 c-3 -5 -1 -10 4 -10 6 0 11 5 11 10 0 6 -2 10 -4 10 -3 0
-8 -4 -11 -10z"/>
<path d="M2338 2252 c-15 -14 -15 -17 -1 -39 8 -12 28 -60 44 -105 16 -46 29
-73 29 -61 0 12 -5 34 -10 49 -18 45 -2 40 20 -7 11 -24 18 -36 15 -26 -3 10
-5 23 -5 27 0 5 -13 24 -29 42 -45 52 -65 97 -50 114 16 20 8 24 -13 6z"/>
<path d="M2256 2211 c-4 -6 -3 -19 3 -28 9 -17 10 -17 17 0 8 21 -10 45 -20
28z"/>
<path d="M438 2123 c7 -3 16 -2 19 1 4 3 -2 6 -13 5 -11 0 -14 -3 -6 -6z"/>
<path d="M380 2071 c-6 -12 -7 -21 -1 -21 10 0 24 30 17 37 -2 3 -9 -5 -16
-16z"/>
<path d="M400 1990 c0 -11 2 -20 4 -20 2 0 6 9 9 20 3 11 1 20 -4 20 -5 0 -9
-9 -9 -20z"/>
<path d="M2411 1907 c-2 -49 -80 -147 -116 -147 -17 0 -59 53 -79 100 -8 19
-15 29 -16 22 0 -19 38 -90 60 -112 31 -31 63 -25 103 19 35 39 63 101 54 124
-3 7 -6 4 -6 -6z"/>
<path d="M193 1845 c-12 -9 -32 -30 -44 -47 l-23 -31 32 23 c27 20 69 70 59
70 -1 0 -12 -7 -24 -15z"/>
<path d="M2417 1782 c-9 -23 -17 -50 -16 -60 0 -9 9 5 20 32 11 27 18 54 16
59 -2 6 -11 -8 -20 -31z"/>
<path d="M503 163 c15 -2 37 -2 50 0 12 2 0 4 -28 4 -27 0 -38 -2 -22 -4z"/>
</g>
</svg>
